<svg width="0" height="0" display="none" xmlns="http://www.w3.org/2000/svg"> 
              
  <!-- icons -->

  <symbol id="pinterest" viewBox="0 0 20 20">
    <path d="M10.21 1c-4.71 0-7.21 3.16-7.21 6.61 0 1.6.85 3.59 2.22 4.23.21.1.32.05.36-.15.04-.15.22-.89.3-1.24.03-.11.01-.21-.08-.31-.44-.55-.8-1.56-.8-2.49 0-2.41 1.82-4.74 4.93-4.74 2.68 0 4.56 1.83 4.56 4.44 0 2.95-1.49 5-3.43 5-1.07 0-1.87-.88-1.62-1.97.31-1.3.91-2.7.91-3.63 0-.84-.45-1.54-1.38-1.54-1.1 0-1.98 1.13-1.98 2.65 0 .97.33 1.62.33 1.62l-1.28 5.43c-.34 1.44.04 3.79.08 3.99.02.11.14.15.21.05.11-.14 1.41-2.1 1.78-3.51.13-.51.68-2.6.68-2.6.36.68 1.4 1.25 2.5 1.25 3.29 0 5.67-3.03 5.67-6.79-.02-3.6-2.96-6.3-6.75-6.3"/>
  </symbol>  

  <symbol id="vimeo" viewBox="0 0 20 20">
    <path d="M12.737 6.823c-.569 0-1.098.264-1.589.794-.346.347-.556.753-.629 1.223.23-.146.43-.218.601-.218.177 0 .322.078.437.236.221.309.209.699-.037 1.168-.543 1.038-.94 1.556-1.184 1.556-.173 0-.396-.58-.669-1.741-.048-.172-.098-.42-.148-.741-.05-.32-.098-.598-.148-.833-.05-.234-.123-.476-.222-.721s-.222-.427-.37-.537c-.104-.077-.224-.116-.363-.116l-.192.023c-.321.074-.692.272-1.111.593-.421.32-.766.629-1.038.926l-.371.444.334.443.184-.148c.073-.05.21-.112.408-.186l.212-.048c.077 0 .129.028.159.084.073.099.301.797.683 2.093.384 1.297.624 2.043.722 2.241.173.346.408.611.703.797.144.089.301.134.474.134.183 0 .384-.052.6-.154.668-.443 1.432-1.184 2.297-2.222.864-1.037 1.394-2.136 1.592-3.296.173-1.012-.122-1.593-.888-1.741-.153-.039-.302-.056-.449-.056zm-2.737 13.177c-5.514 0-10-4.486-10-10s4.486-10 10-10 10 4.486 10 10-4.486 10-10 10zm0-17.778c-4.288 0-7.778 3.49-7.778 7.778s3.49 7.778 7.778 7.778 7.778-3.49 7.778-7.778-3.49-7.778-7.778-7.778z"/>
  </symbol>

  <symbol id="twitter" viewBox="0 0 35 35">
    <path d="M17.24 13.69h-.66a20.83 20.83 0 0 1-10.44-4 22.29 22.29 0 0 1-3.49-3.3 1.25 1.25 0 0 1 1.9-1.69 19.39 19.39 0 0 0 3.08 2.92 18.28 18.28 0 0 0 8.5 3.46 7.81 7.81 0 0 1 2-5.34 8 8 0 0 1 6.35-2.74 7.77 7.77 0 0 1 5.08 2.1.57.57 0 0 1 .11.11c.29.32 1.38 1.29 3.07 0a1.25 1.25 0 0 1 1.52 2 4.61 4.61 0 0 1-6.44-.3 5.28 5.28 0 0 0-3.45-1.39 5.58 5.58 0 0 0-4.37 1.88 5.32 5.32 0 0 0-1.26 4.45 1.54 1.54 0 0 1-.38 1.4 1.44 1.44 0 0 1-1.12.44zM11.65 32a20.9 20.9 0 0 1-10.43-2.9 1.75 1.75 0 0 1-.85-.85 1.24 1.24 0 0 1 1.23-1.77 12.89 12.89 0 0 0 6.56-1.11 7.79 7.79 0 0 1-3.26-2.37 1.25 1.25 0 1 1 2-1.5c1 1.33 3.59 2.09 4.5 2.18a1.25 1.25 0 0 1 1.08.92 1.24 1.24 0 0 1-.48 1.4 15.4 15.4 0 0 1-5.68 2.68 18.09 18.09 0 0 0 11.55-.25 17.57 17.57 0 0 0 11.77-16.8 1.24 1.24 0 0 1 1.24-1.26 1.26 1.26 0 0 1 1.25 1.25 20.07 20.07 0 0 1-13.43 19.14 21.8 21.8 0 0 1-7.05 1.24zM2.39 15.06a10.22 10.22 0 0 0 2.61 2.1 6.72 6.72 0 0 0 3.52 1.17 1.28 1.28 0 0 0 1.25-1.25 1.26 1.26 0 0 0-1.25-1.25h-.55.06l-.35-.1c-.08 0-.31-.07-.35-.13l-.17-.08-.33-.17-.63-.35-.6-.38-.3-.2-.14-.11a7.63 7.63 0 0 1-1-1 1.26 1.26 0 0 0-1.77 0 1.28 1.28 0 0 0 0 1.77z"/>
  </symbol>                        
              
  <symbol id="pin" viewBox="0 0 24 24">
    <path d="M12 2a8 8 0 0 0-8 7.92c0 5.48 7.05 11.58 7.35 11.84a1 1 0 0 0 1.3 0C13 21.5 20 15.4 20 9.92A8 8 0 0 0 12 2zm0 11a3.5 3.5 0 1 1 3.5-3.5A3.5 3.5 0 0 1 12 13z"/>
  </symbol> 
              
  <symbol id="plus" viewBox="0 0 24 24" >
    <path d="M12 2a10 10 0 1 0 10 10A10 10 0 0 0 12 2zm3 11h-2v2a1 1 0 0 1-2 0v-2H9a1 1 0 0 1 0-2h2V9a1 1 0 0 1 2 0v2h2a1 1 0 0 1 0 2z"/>
  </symbol>                 

  <symbol id="chat" viewBox="0 0 24 24" >
    <path d="M21 15a2 2 0 0 1-2 2h-12l-4 4v-16a2 2 0 0 1 2-2h14a2 2 0 0 1 2 2z" />
  </symbol>

  <symbol id="arrow-down" viewBox="0 0 24 24">
    <path d="M7 10L12 15L17 10" stroke-width="1.5" stroke-linecap="round" stroke-linejoin="round"/>
  </symbol> 
  
  <symbol id="up" viewBox="0 0 20 20">
    <path d="M4 13l6-6 6 6"/>
  </symbol>

  <symbol id="left" viewBox="0 0 20 20">
    <path stroke-width="1.03" d="M13 16l-6-6 6-6"/>
  </symbol>

  <symbol id="right" viewBox="0 0 20 20">
    <path stroke-width="1.03" d="M7 4l6 6-6 6"/>
  </symbol>
  
  <symbol xmlns="http://www.w3.org/2000/svg" viewBox="0 0 91 91" id="d1">
    <path d="M22.105 47.645l-1.102-1.599-3.758 2.593 4.549 6.595 9.107-11.126-3.534-2.891zM22.105 60.534l-1.102-1.6-3.76 2.592 4.551 6.6 9.107-11.134-3.534-2.889zM22.105 73.425l-1.102-1.6-3.758 2.594 4.551 6.598 9.105-11.136-3.534-2.891zM35.159 49.158h18.128v4.565h-18.128zM35.159 60.879h26.958v4.564h-26.958zM35.159 72.592h26.958v4.564h-26.958zM86.621 25.006c0-13.645-11.1-24.743-24.745-24.743-6.517 0-12.449 2.535-16.874 6.666-1.917-1.748-4.417-2.768-7.111-2.768-3.569 0-6.823 1.764-8.793 4.685h-7.625v4.685h-15.311v77.207h59.381c4.919 0 8.922-4.005 8.922-8.926v-35.515c7.27-4.315 12.156-12.242 12.156-21.291zm-60.583-11.596h5.785l.628-1.27c1.044-2.105 3.129-3.414 5.44-3.414 1.542 0 2.975.592 4.073 1.606-2.197 2.972-3.74 6.451-4.428 10.226h-11.498v-7.148zm43.861 68.402c0 2.404-1.955 4.361-4.356 4.361h-54.815v-68.077h10.746v7.028h15.658c.064 13.59 11.139 24.627 24.744 24.627 2.808 0 5.506-.477 8.023-1.343v33.404zm-8.023-36.625c-11.128 0-20.182-9.053-20.182-20.18 0-11.126 9.054-20.179 20.182-20.179s20.179 9.053 20.181 20.179c0 11.128-9.053 20.18-20.181 20.18z" stroke-width="1"></path>
  </symbol>
  
  <symbol xmlns="http://www.w3.org/2000/svg" viewBox="0 0 91 91" id="d2">
    <path d="M54.367 70.306h-.002c-.418 0-1.875-.101-3.063-1.396-1.091-1.192-1.542-2.94-1.342-5.195.251-2.941-.153-6.563-1.084-9.676-.397-1.313-.877-2.713-1.674-4.002-.68-1.093-1.289-1.093-1.49-1.093-.742 0-1.575.587-1.951 1.153-.808 1.22-1.242 2.638-1.626 3.889-.938 3.173-.986 6.156-1.027 8.791-.019 1.137-.034 2.211-.129 3.165-.177 2.15-1.729 4.364-4.347 4.364-2.747 0-3.759-1.353-5.1-3.581-1.267-2.123-2.769-6.313-2.763-14.254.038-5.222-1.284-7.945-2.76-10.501l-.234-.422c-1.354-2.443-2.635-4.752-2.676-10.132 0-.283.002-.57.012-.883.146-3.955 1.676-6.873 4.673-8.938 1.881-1.273 4.327-2.104 7.091-2.414l.224-.014 3.825-.053.219.007c2.365.194 4.612.716 6.358 1.472 2.224-.963 5.236-1.54 8.096-1.54h.158c3.679 0 7.033.896 9.443 2.523 3.014 2.085 4.539 5.006 4.688 8.941l.011.879c-.05 5.416-1.331 7.728-2.688 10.174l-.198.356c-1.498 2.593-2.819 5.313-2.785 10.528.005 7.954-1.499 12.144-2.761 14.259-1.424 2.386-2.604 3.593-5.098 3.593zm-18-4.592h.007l.04-.186c.078-.803.094-1.74.109-2.825.045-2.782.1-6.245 1.201-9.972.455-1.485 1.041-3.396 2.215-5.167 1.291-1.948 3.559-3.207 5.773-3.207 2.168 0 4.081 1.159 5.388 3.264 1.079 1.745 1.701 3.555 2.167 5.096 1.105 3.698 1.563 7.85 1.261 11.396-.081.906.023 1.37.099 1.573.126-.133.396-.471.906-1.32.788-1.322 2.115-4.632 2.111-11.892-.042-6.346 1.723-9.935 3.378-12.799l.181-.324c1.248-2.254 2.072-3.741 2.112-7.974l-.01-.737c-.117-3.073-1.363-4.355-2.692-5.275-1.615-1.09-4.123-1.725-6.856-1.725h-.158c-2.284 0-4.738.469-6.404 1.222l-.767.338c-.592.263-1.271.263-1.861-.002l-.744-.332c-1.274-.579-3.067-.999-4.945-1.163l-3.598.05c-1.955.231-3.693.811-4.908 1.631-1.802 1.24-2.58 2.78-2.675 5.307l-.01.71c.033 4.194.856 5.68 2.102 7.927l.218.391c1.635 2.828 3.398 6.42 3.352 12.773-.005 7.245 1.32 10.554 2.11 11.88.501.833.763 1.193.898 1.342zM50.622 28.115c-.362 0-.73-.086-1.072-.269l-5.124-2.719c-1.118-.594-1.544-1.98-.951-3.1.594-1.118 1.982-1.545 3.1-.951l5.125 2.719c1.117.594 1.543 1.981.95 3.101-.412.777-1.207 1.219-2.028 1.219zM45.595 90.403h-.188c-.233 0-.467-.035-.688-.105-20.349-6.417-33.673-21.741-38.533-44.315-3.624-16.831-1.305-31.554-1.205-32.173.143-.868.769-1.579 1.612-1.829l38.164-11.29c.211-.063.431-.095.649-.095h.188c.22 0 .439.031.65.095l38.162 11.289c.846.25 1.472.961 1.612 1.831.102.617 2.419 15.341-1.205 32.172-4.86 22.573-18.185 37.897-38.529 44.314-.222.071-.456.106-.689.106zm-36.274-74.449c-.469 4.019-1.471 16.087 1.375 29.192 4.531 20.872 16.24 34.523 34.806 40.587 18.563-6.063 30.271-19.716 34.803-40.587 2.846-13.105 1.845-25.175 1.376-29.192l-36.179-10.702-36.181 10.702zM45.408 16.142c-1.267 0-2.293-1.025-2.293-2.292v-10.961c0-1.266 1.026-2.292 2.293-2.292 1.266 0 2.291 1.026 2.291 2.292v10.961c0 1.265-1.026 2.292-2.291 2.292zM45.408 90.403c-1.267 0-2.293-1.026-2.293-2.292v-15.705c0-1.267 1.026-2.292 2.293-2.292 1.266 0 2.291 1.025 2.291 2.292v15.705c0 1.266-1.026 2.292-2.291 2.292z" stroke-width="1"></path>
  </symbol>
  
  <symbol xmlns="http://www.w3.org/2000/svg" viewBox="0 0 91 91" id="d3">
    <path d="M45.938 19.357c-3.174 0-5.756 2.58-5.756 5.755s2.582 5.758 5.756 5.758c3.175 0 5.755-2.583 5.755-5.758-.001-3.174-2.581-5.755-5.755-5.755zm0 7.277c-.838 0-1.521-.682-1.521-1.521 0-.837.684-1.52 1.521-1.52.837 0 1.52.683 1.52 1.52-.001.839-.684 1.521-1.52 1.521zM31.47 42.651c1.681 0 3.046-1.366 3.047-3.045 0-1.68-1.365-3.048-3.047-3.048-1.68 0-3.047 1.368-3.047 3.048 0 1.679 1.367 3.045 3.047 3.045zM61.668 42.651c1.682 0 3.048-1.366 3.048-3.045 0-1.68-1.366-3.048-3.048-3.048-1.679 0-3.045 1.368-3.045 3.048 0 1.679 1.366 3.045 3.045 3.045zM77.053 52.532c1.155-.222 5.439-1.243 7.879-4.59 1.5-2.056 2.021-4.529 1.551-7.349-.615-3.693-2.451-5.196-3.883-5.804-1.815-.776-3.791-.49-5.409.048v-25.843c0-.563-.228-1.104-.627-1.503-.296-.295-7.521-7.203-30.625-7.203-23.029 0-31.076 6.822-31.408 7.113-.459.403-.722.982-.722 1.593v25.847c-1.617-.539-3.591-.825-5.408-.052-1.433.609-3.27 2.11-3.885 5.806-.47 2.82.053 5.293 1.553 7.352 2.777 3.808 7.947 4.605 8.167 4.638l.31.021.289-.026c1.52 5.902 4.659 11.131 8.906 15.196-9.368 2.304-16.346 10.75-16.346 20.818 0 1.17.948 2.119 2.118 2.119s2.118-.949 2.117-2.118c0-9.304 7.423-16.891 16.656-17.195 5.075 3.348 11.145 5.294 17.652 5.294 6.521 0 12.601-1.954 17.682-5.314 9.406.107 17.03 7.784 17.03 17.215 0 1.17.946 2.119 2.116 2.119s2.119-.949 2.119-2.12c0-10.184-7.137-18.714-16.667-20.9 4.215-4.067 7.329-9.279 8.835-15.162zm-31.115-48.01c17.461 0 24.95 4.088 27.016 5.501v17.023c-.2-.311-.4-.622-.611-.927-.667-.963-1.986-1.202-2.946-.536-.963.666-1.203 1.985-.536 2.947.86 1.242 1.595 2.55 2.237 3.898-4.096-2.924-8.668-5.108-13.538-6.451.021-.287.044-.574.044-.867 0-6.431-5.234-11.662-11.666-11.662-6.434 0-11.666 5.232-11.666 11.662 0 .317.022.629.048.939-4.913 1.38-9.534 3.614-13.668 6.601.792-1.703 1.755-3.33 2.894-4.863.696-.94.5-2.268-.439-2.963-.941-.699-2.267-.5-2.963.438-.77 1.038-1.464 2.115-2.098 3.222v-18.395c2.325-1.463 10.409-5.567 27.892-5.567zm7.19 22.431l-.038.114-.008.065c-.883 3.119-3.748 5.412-7.145 5.412-4.098 0-7.432-3.333-7.432-7.433 0-4.095 3.334-7.427 7.432-7.427 4.097 0 7.431 3.332 7.431 7.427 0 .638-.089 1.252-.24 1.842zm-37.27 17.02c-1.169.062-2.066 1.061-2.004 2.228.036.675.099 1.342.175 2.005-1.175-.316-3.327-1.094-4.538-2.756-.816-1.117-1.077-2.479-.797-4.158.165-.992.536-2.247 1.36-2.602 1.034-.442 2.776.216 3.932.833.327.748 1.071 1.272 1.939 1.272.152 0 .299-.018.442-.048.144.03.289.048.435.048.542 0 1.084-.208 1.497-.621 4.786-4.783 10.685-8.218 17.125-10.036 1.882 3.922 5.88 6.642 10.513 6.642 4.656 0 8.674-2.75 10.543-6.707 6.445 1.785 12.328 5.189 17.092 9.955.413.412.956.62 1.498.62.543 0 1.085-.208 1.497-.621.136-.135.24-.287.331-.445 1.153-.633 2.978-1.351 4.045-.894.824.354 1.193 1.609 1.359 2.603.278 1.671.022 3.026-.782 4.142-.94 1.3-2.456 2.06-3.639 2.484.061-.573.109-1.149.14-1.73.061-1.169-.835-2.165-2.003-2.227-1.182-.044-2.166.836-2.228 2.005-.179 3.405-.965 6.638-2.241 9.604l-7.968-8.672c-.402-.437-.966-.684-1.56-.684h-31.526c-.57 0-1.115.229-1.514.635l-8.62 8.809c-1.297-2.985-2.097-6.244-2.277-9.679-.06-1.169-1.063-2.067-2.226-2.005zm6.591 15.607l8.937-9.131h29.707l8.354 9.092c-4.967 7.789-13.662 12.917-23.51 12.917-9.832 0-18.518-5.11-23.488-12.878z" stroke-width="1"></path>
  </symbol>
  
  <symbol xmlns="http://www.w3.org/2000/svg" viewBox="0 0 91 91" id="d4">
    <path d="M29.968 14.339c0-7.623-6.203-13.823-13.826-13.823s-13.822 6.2-13.822 13.823c0 6.871 5.041 12.572 11.617 13.633v8.542h-4.4v53.97h5.834c4.066 0 7.375-3.31 7.375-7.378v-46.591h-4.399v-8.542c6.575-1.062 11.62-6.764 11.621-13.634zm-11.631 28.321h-4.392v-1.736h4.392v1.736zm-2.966 43.416h-1.426v-39.007h4.392v36.037c0 1.638-1.33 2.97-2.966 2.97zm-8.643-71.737c0-5.191 4.225-9.415 9.414-9.415 5.192 0 9.416 4.224 9.417 9.415 0 5.192-4.225 9.417-9.417 9.417-5.191 0-9.414-4.225-9.414-9.417z" stroke-width="1"></path>
    <path d="M61.034 14.339c0-7.623-6.201-13.823-13.822-13.823-7.625 0-13.827 6.2-13.827 13.823 0 1.219.987 2.206 2.205 2.206 1.217 0 2.203-.989 2.203-2.206 0-5.191 4.225-9.415 9.419-9.415 5.19 0 9.413 4.224 9.413 9.415 0 5.192-4.223 9.417-9.413 9.417-1.218 0-2.205.987-2.205 2.204v10.555h-4.399v53.97h5.834c4.067 0 7.373-3.31 7.373-7.378v-46.592h-4.399v-8.542c6.574-1.062 11.618-6.763 11.618-13.634zm-11.627 28.321h-4.392v-1.736h4.392v1.736zm-2.966 43.416h-1.426v-39.007h4.392v36.037c0 1.638-1.33 2.97-2.966 2.97z" stroke-width="1"></path>
    <path d="M88.177 12.123c.429-.52.597-1.21.453-1.869-.143-.661-.581-1.219-1.188-1.514l-16.386-8-1.935 3.962 13.872 6.773-6.108 7.404c-.324.396-.504.893-.504 1.403v16.231h-4.4v53.97h5.832c4.067 0 7.377-3.31 7.377-7.378v-46.59h-4.398v-15.439l7.385-8.953zm-7.396 28.801v1.736h-4.393v-1.736h4.393zm-2.968 45.152h-1.424v-39.007h4.393v36.037c-.001 1.638-1.332 2.97-2.969 2.97z" stroke-width="1"></path>
  </symbol>
  
  <symbol xmlns="http://www.w3.org/2000/svg" viewBox="0 0 91 91" id="d5">
    <path d="M88.988 38l-2.752-11.8-.099-.314c-.65-1.627-2.921-4.44-6.862-3.455-1.952.487-2.938 1.575-3.42 2.404-.344.589-.522 1.183-.606 1.728-.629-.057-1.276-.015-1.919.169-2.783.794-4.406 3.71-3.616 6.505l2.459 8.601c-1.105.401-2.022 1.055-2.596 1.622l-.253.249-7.813 15.5v27.33h4.331v-26.301l6.995-13.869c.392-.295 1.206-.793 1.87-.436.851.459.896 1.381.885 1.708l-3.448 12.66 4.183 1.139 2.122-7.79 2.868-8.814-1.722-16.889-.065-.356c-.002-.001-.047-.372.069-.572.086-.15.354-.29.727-.384.979-.245 1.486.269 1.739.757l2.7 11.592c2.465 10.558.269 18.845.057 19.603l-7.289 19.119v8.832h4.335v-8.031l7.036-18.457.048-.137c.117-.393 2.887-9.692.036-21.913zm-14.467-7.101c.428-.128.866.089 1.065.475l1.05 10.308-2.753-9.631c-.139-.496.148-1.012.638-1.152zM21.671 43.708l-.254-.251c-.574-.565-1.491-1.217-2.595-1.618l2.459-8.606c.795-2.791-.829-5.708-3.615-6.502-.642-.184-1.289-.226-1.918-.169-.084-.545-.262-1.14-.606-1.73-.483-.827-1.469-1.914-3.416-2.402-3.945-.987-6.215 1.828-6.864 3.455l-2.851 12.114c-2.85 12.22-.081 21.521.039 21.911l7.078 18.594v8.033h4.335v-8.832l-7.284-19.121c-.217-.775-2.405-9.059.055-19.603l2.706-11.605c.174-.35.659-1.011 1.732-.743.521.129.939.295.796.958l-.275 2.661-.036.091.026.007-1.498 14.484 2.885 8.873.005-.002 2.097 7.732 4.184-1.139-2.163-7.932h.001l-.005-.016-1.282-4.701c-.013-.361.047-1.264.881-1.717.667-.357 1.489.147 1.873.434l6.994 13.871v26.299h4.333v-27.33l-7.817-15.498zm-5.195-12.809c.491.14.777.654.638 1.146l-2.75 9.619 1.047-10.295c.2-.381.631-.592 1.065-.47zM64.139 25.748c1.28-2.312 2.493-4.496 2.541-9.615l-.013-.674-.003-.151c-.137-3.723-1.579-6.485-4.433-8.455-2.282-1.54-5.466-2.389-9.039-2.389-2.727 0-5.594.546-7.692 1.459-1.647-.719-3.772-1.21-6.017-1.393l-.203-.005-3.613.048-.215.013c-2.622.295-4.935 1.082-6.698 2.28-2.835 1.948-4.28 4.707-4.423 8.47l-.01.814c.041 5.083 1.25 7.266 2.53 9.58l.225.403c1.339 2.31 2.644 4.978 2.608 9.924-.004 7.51 1.416 11.468 2.611 13.472 1.263 2.107 2.22 3.391 4.819 3.391 2.474 0 3.942-2.092 4.111-4.125.088-.904.102-1.918.12-2.992.039-2.488.084-5.313.971-8.306.361-1.185.772-2.528 1.536-3.684.358-.537 1.146-1.094 1.849-1.094.19 0 .768 0 1.409 1.032.746 1.206 1.202 2.538 1.582 3.786.878 2.949 1.261 6.372 1.021 9.153-.188 2.133.24 3.783 1.272 4.91 1.122 1.223 2.498 1.318 2.894 1.318h.002c2.361 0 3.475-1.143 4.824-3.393 1.192-2.002 2.614-5.961 2.612-13.485-.036-4.921 1.214-7.497 2.632-9.953l.19-.339zm-10.259 25.004v-2.166h.002l-.002 2.166zm6.469-27.104l-.173.311c-1.566 2.715-3.236 6.112-3.19 12.104.002 6.859-1.253 9.989-2.001 11.241-.482.809-.737 1.127-.857 1.25-.069-.191-.17-.629-.094-1.486.29-3.345-.144-7.271-1.188-10.778-.469-1.54-1.041-3.188-2.048-4.818-1.237-1.988-3.045-3.084-5.095-3.084-2.092 0-4.236 1.188-5.462 3.032-1.112 1.684-1.664 3.491-2.091 4.884-1.043 3.527-1.096 6.802-1.139 9.434-.015 1.026-.029 1.911-.103 2.67l-.039.174h-.004c-.118-.131-.362-.461-.852-1.277-.745-1.254-1.999-4.379-1.995-11.228.043-6.023-1.625-9.412-3.169-12.073l-.206-.371c-1.177-2.127-1.955-3.534-1.986-7.499l.008-.668c.09-2.389.827-3.845 2.536-5.019 1.137-.773 2.78-1.318 4.635-1.54l3.399-.044c1.778.152 3.472.549 4.678 1.099l.64.284 4.775 2.537c.324.171.67.253 1.014.253.775 0 1.527-.417 1.917-1.15.562-1.059.159-2.369-.896-2.931l-.075-.04c.653-.072 1.32-.114 1.981-.114 2.604 0 4.988.601 6.521 1.634 1.256.868 2.434 2.079 2.541 5.009l.003.127.012.545c-.038 3.996-.818 5.4-1.997 7.532z" stroke-width="1"></path>
  </symbol>
  
  <symbol xmlns="http://www.w3.org/2000/svg" viewBox="0 0 91 91" id="d6">
    <path d="M.121 8.926v73.148h82.743c4.42 0 8.016-3.6 8.016-8.025v-65.123h-90.759zm86.175 65.123c0 1.896-1.539 3.441-3.432 3.441h-78.158v-63.979h81.59v60.538zM59.45 39.783h17.932v4.584h-17.932zM59.45 46.635h8.963v4.584h-8.963zM18.22 42.71c1.383 2.487 2.732 5.36 2.695 10.683-.012 8.006 1.439 12.236 2.664 14.383 1.302 2.269 2.291 3.646 5.027 3.646 2.611 0 4.136-2.239 4.288-4.396.092-.967.108-2.055.127-3.207.041-2.672.09-5.699 1.01-8.928.141-.506.81-2.199 3.088-2.078 2.41.113 3.203 1.871 3.33 2.201.894 3.16 1.279 6.806 1.029 9.772-.192 2.304.267 4.078 1.364 5.271 1.164 1.265 2.582 1.362 2.99 1.362h.002c2.469 0 3.627-1.227 5.026-3.649 1.221-2.14 2.672-6.368 2.664-14.39-.031-5.305 1.258-8.075 2.721-10.715l.197-.373c1.309-2.467 2.547-4.797 2.592-10.241l-.008-.55-.008-.338c-.14-3.963-1.619-6.903-4.541-9.002-2.36-1.664-5.647-2.58-9.257-2.58h-.129c-2.766 0-5.678.57-7.871 1.539-1.711-.758-3.887-1.274-6.164-1.463l-.222-.008-3.715.049-.236.016c-2.711.318-5.104 1.164-6.942 2.459-2.904 2.089-4.384 5.029-4.525 9.07l-.008.822c.037 5.431 1.277 7.763 2.59 10.231l.222.414zm27.613 26.417v-2.291h.002l-.002 2.291zm-25.833-37.805c.112-3.205 1.388-4.543 2.601-5.414 1.176-.828 2.801-1.391 4.705-1.629l3.478-.041c1.796.158 3.516.576 4.737 1.148l.719.338 4.845 2.686c.352.195.732.287 1.109.287.807 0 1.588-.426 2.006-1.182.615-1.107.214-2.502-.893-3.115l-.195-.108c.659-.077 1.326-.123 1.98-.123h.129c2.633 0 5.043.635 6.598 1.73 1.23.883 2.504 2.219 2.615 5.385l.008.334.008.414c-.038 4.304-.842 5.82-2.059 8.113l-.181.34c-1.603 2.894-3.31 6.517-3.271 12.912.006 7.373-1.289 10.746-2.057 12.092-.38.656-.623 1.01-.771 1.201-.068-.258-.134-.729-.068-1.521.302-3.563-.14-7.75-1.229-11.557-.607-1.896-2.867-5.162-7.48-5.381-5.051-.238-7.266 3.56-7.727 5.451-1.074 3.758-1.129 7.254-1.172 10.063-.018 1.105-.031 2.061-.111 2.898l-.01.069c-.146-.196-.379-.557-.758-1.217-.774-1.355-2.069-4.732-2.06-12.088.045-6.422-1.666-10.041-3.25-12.887l-.201-.377c-1.219-2.293-2.025-3.808-2.055-8.097l.01-.724z" stroke-width="1"></path>
  </symbol>

    <!-- color icons -->

  <symbol xmlns="http://www.w3.org/2000/svg" viewBox="0 0 91 91" id="chair">
    <circle cx="45.503" cy="48.433" fill="#9ae0ff" r="36.418"></circle>
    <path fill="#f4f2e8" d="M83.873 74.296l-21.037-10.983h-27.314l-33.026-34.589 6.883-6.334 30.011 32.157h25.879l23.235 12.009zM26.316 13.175c3.431-4.612 9.953-5.576 14.569-2.149 4.617 3.431 5.578 9.951 2.15 14.569l-16.719-12.42z"></path>
    <path fill="#68c1e0" d="M24.102 77.556h47.293v7.672h-47.293z"></path>
    <path d="M90.634 65.95c-.168-.59-.568-1.081-1.112-1.36l-15.912-8.224v-50.597c0-1.222-.992-2.212-2.215-2.212h-21.384c-.388 0-.77.103-1.105.294l-7.957 4.586c-1.903-1.095-4.04-1.678-6.263-1.678-3.98 0-7.773 1.905-10.146 5.095l-1.321 1.777 20.276 15.063 1.32-1.777c3.492-4.705 3.204-11.054-.3-15.424l6.089-3.509h18.578v46.094l-2.896-1.496c-.314-.164-.663-.247-1.017-.247h-12.985l2.667-5.442h8.497v-4.427h-22.742v4.427h9.313l-2.667 5.442h-7l-29.354-31.457c-.83-.889-2.222-.943-3.118-.117l-6.884 6.335c-.437.402-.694.962-.713 1.556-.02.596.2 1.173.611 1.603l33.026 34.588c.111.117.236.218.368.306v10.194h-12.4v12.1h51.722v-12.1h-13.703v-9.815h2.385l20.558 10.732c.325.17.677.251 1.021.251.757 0 1.488-.387 1.902-1.078l4.631-7.74c.316-.525.398-1.155.23-1.743zm-48.3-43.635l-12.679-9.419c1.418-1.103 3.169-1.709 5.029-1.709 1.769 0 3.456.559 4.88 1.617 3.014 2.238 4.049 6.165 2.77 9.511zm26.849 57.455v3.245h-42.868v-3.245h7.973v.001h25.619v-.001h9.276zm-30.467-4.427v-9.813h16.764v9.813h-16.764zm44.33-3.976l-19.187-10.015c-.316-.166-.668-.251-1.024-.251h-26.365l-30.816-32.274 3.606-3.318 28.51 30.55c.419.449 1.005.704 1.619.704h25.34l20.666 10.679-2.349 3.925z" fill="#3b6a75" stroke="#3b6a75" stroke-width="1"></path>
  </symbol>
  
  <symbol xmlns="http://www.w3.org/2000/svg" viewBox="0 0 91 91" id="clean">
    <circle cx="43.031" cy="40.224" fill="#9ae0ff" r="38.655"></circle>
    <path d="M72.782 34.678l-.005-.393c-.188-5.035-2.041-8.599-5.841-11.222-3.12-2.106-7.522-3.266-12.398-3.266h-.129c-3.945 0-8.074.801-11.034 2.138l-.477.213-.467-.207c-2.294-1.044-5.46-1.789-8.684-2.047l-.134-.004-5.409.069-.143.009c-3.634.413-6.815 1.484-9.213 3.105-3.793 2.616-5.646 6.18-5.829 11.246l-.007.47-.011.681c.06 7.156 1.685 10.089 3.565 13.486l.313.561c2.131 3.678 4.208 7.923 4.152 15.769-.011 10.808 1.974 16.423 3.646 19.236 1.953 3.247 2.932 4.19 5.668 4.19 2.627 0 4.179-2.301 4.351-4.545.126-1.28.151-2.77.176-4.345.059-3.649.134-8.191 1.511-12.832l.034-.115c.546-1.792 1.226-4.021 2.511-5.956.782-1.176 2.448-2.442 4.271-2.442 1.43 0 2.654.811 3.646 2.406 1.226 1.977 1.96 4.103 2.567 6.097 1.379 4.636 1.974 10.007 1.592 14.367-.231 2.667.253 4.678 1.441 5.977.939 1.024 2.167 1.39 3.004 1.39h.002c2.672 0 3.806-1.099 5.662-4.195 1.669-2.804 3.658-8.416 3.648-19.24-.052-7.834 2.023-12.082 4.172-15.789l.288-.521c1.881-3.396 3.504-6.33 3.567-13.509.004-.253 0-.512-.006-.782z" fill="#f4f2e8"></path>
    <path d="M73.499 34.608l-.007-.352c-.196-5.28-2.146-9.022-6.155-11.79-3.237-2.185-7.782-3.388-12.796-3.388h-.138c-4.041 0-8.278.824-11.325 2.2l-.183.082-.168-.075c-2.404-1.093-5.573-1.84-8.924-2.107l-.199-.006-5.408.069-.216.014c-3.746.425-7.039 1.537-9.539 3.227-3.997 2.759-5.948 6.5-6.141 11.831l-.009.463-.008.7c.061 7.339 1.728 10.347 3.655 13.828l.319.575c2.082 3.591 4.11 7.737 4.057 15.406-.01 10.971 2.031 16.713 3.75 19.606 1.896 3.156 3.063 4.539 6.283 4.539 3.065 0 4.871-2.636 5.063-5.19.13-1.312.155-2.815.181-4.408.06-3.605.133-8.091 1.477-12.631l.035-.113c.562-1.837 1.197-3.92 2.425-5.771.699-1.054 2.187-2.12 3.672-2.12 1.163 0 2.185.694 3.035 2.063 1.176 1.899 1.894 3.978 2.489 5.924 1.353 4.553 1.938 9.822 1.563 14.101-.249 2.876.299 5.07 1.629 6.522 1.381 1.506 3.055 1.623 3.534 1.623h.002c3.041 0 4.394-1.4 6.278-4.547 1.716-2.881 3.76-8.621 3.75-19.613-.05-7.653 1.979-11.803 4.082-15.437l.288-.521c1.928-3.481 3.591-6.488 3.658-13.854l-.009-.85zm-7.418 12.618l-.269.489c-2.276 3.928-4.698 8.851-4.64 17.574.007 10.525-1.967 15.414-3.142 17.386-1.447 2.415-1.717 2.446-2.546 2.446-.576-.07-1.1-1.177-.902-3.46.427-4.86-.203-10.584-1.729-15.719-.686-2.241-1.518-4.636-2.954-6.952-1.642-2.646-4.021-4.104-6.698-4.104-3.163 0-5.928 2.033-7.265 4.049-1.574 2.373-2.34 4.88-2.955 6.895l-.04.131c-1.517 5.122-1.596 9.935-1.659 13.802-.024 1.567-.047 2.92-.164 4.104-.001.012-.145 1.256-.77 1.256-1.033 0-1.117 0-2.582-2.438-1.177-1.98-3.149-6.874-3.141-17.38.063-8.74-2.361-13.659-4.613-17.544l-.3-.543c-1.779-3.21-3.065-5.53-3.116-11.756l.008-.599.007-.444c.143-3.906 1.422-6.414 4.262-8.374 1.889-1.276 4.476-2.137 7.489-2.492l5.198-.065c2.788.231 5.475.858 7.4 1.734l.987.438 7.191 3.817c.322.171.669.252 1.009.252.772 0 1.521-.416 1.906-1.145.557-1.052.157-2.356-.894-2.915l-2.936-1.559c1.94-.456 4.106-.717 6.181-.717h.138c4.103 0 7.888.967 10.365 2.638 2.853 1.97 4.131 4.479 4.276 8.345l.006.315.01.751c-.054 6.251-1.34 8.572-3.118 11.784z" fill="#3b6a75" stroke="#3b6a75" stroke-width="1"></path>
    <path fill="#99b3b7" d="M86.267 14.553c-6.361 0-6.479-8.489-6.482-8.845v-.038000000000000006c-.019-1.173-.976-2.117-2.154-2.117-1.188 0-2.152.962-2.155 2.15-.002.368-.123 8.85-6.483 8.85h-.018000000000000002c-1.184.01-2.139.972-2.139 2.156 0 1.184.956 2.146 2.14 2.155.681.013 6.5.381 6.5 8.846 0 1.189.966 2.155 2.155 2.155s2.154-.966 2.154-2.156c0-8.479 5.836-8.833 6.482-8.847 1.189 0 2.154-.965 2.154-2.154 0-1.19-.965-2.155-2.154-2.155zm-8.639 4.824c-.698-1.074-1.521-1.934-2.396-2.61.98-.801 1.77-1.777 2.396-2.841.629 1.063 1.418 2.04 2.397 2.841-.875.676-1.698 1.536-2.397 2.61zM42.075 39.234c-6.18 0-6.297-8.264-6.299-8.611 0-1.188-.961-2.149-2.149-2.151h-.005c-1.185 0-2.148.96-2.154 2.146-.002.352-.119 8.616-6.301 8.616-1.189 0-2.154.965-2.154 2.154 0 1.191.965 2.156 2.154 2.156.258 0 6.301.098 6.301 8.608 0 1.19.965 2.155 2.154 2.155s2.154-.965 2.154-2.155c0-8.247 5.673-8.596 6.299-8.608 1.19 0 2.155-.965 2.155-2.156 0-1.189-.964-2.154-2.155-2.154zm-8.454 4.68c-.667-1.009-1.445-1.823-2.272-2.471.922-.764 1.672-1.688 2.272-2.692.601 1.004 1.35 1.929 2.272 2.692-.827.648-1.606 1.462-2.272 2.471zM16.692 14.381c-3.676 0-3.821-4.908-3.825-5.459v-.014c-.007-1.185-.969-2.143-2.155-2.143-1.188 0-2.151.961-2.154 2.148-.005.563-.151 5.467-3.823 5.467-1.19 0-2.155.965-2.155 2.156 0 1.19.965 2.156 2.155 2.156.391 0 3.823.152 3.823 5.456 0 1.191.965 2.156 2.154 2.156 1.19 0 2.155-.965 2.155-2.155 0-5.089 3.21-5.439 3.825-5.457 1.19 0 2.155-.966 2.155-2.156.001-1.19-.964-2.155-2.155-2.155zm-5.98 2.867c-.205-.247-.421-.477-.644-.687.231-.236.446-.486.644-.749.199.263.414.513.646.749-.223.21-.439.44-.646.687z"></path>
    <path d="M62.55 39.989l-.121-.003c-1.057-.065-1.859-.975-1.794-2.031.109-1.781-.036-5.071-2.253-7.086-.781-.711-.84-1.924-.127-2.707.713-.782 1.924-.84 2.707-.128 2.52 2.291 3.762 5.897 3.497 10.158-.063 1.016-.906 1.797-1.909 1.797z" fill="#fff"></path>
  </symbol>
  
  <symbol xmlns="http://www.w3.org/2000/svg" viewBox="0 0 91 91" id="crown">
    <path fill="#f4f2e8" d="M82.371 19.677c-.247-6.58-2.813-10.356-6.752-13.074-3.96-2.676-9.56-3.932-15.114-3.914-5.148-.018-10.212 1.07-13.634 2.611l-1.377.61-1.369-.61c-2.739-1.248-6.573-2.17-10.639-2.498l-7.015.096c-4.135.468-8.089 1.675-11.093 3.712-3.939 2.711-6.511 6.497-6.757 13.061-.01.529-.021 1.016-.021 1.457.074 9.271 2.203 12.619 4.777 17.297 2.66 4.602 5.707 10.484 5.624 21.375 0 12.639 2.138 20.059 4.47 23.98 2.373 3.945 3.166 4.533 5.75 4.533 2.729 0 3.673-2.754 3.794-4.211.521-5.35-.395-13.715 2.246-22.639.761-2.473 1.688-5.561 3.538-8.354 2.49-3.76 9.233-6.703 13.396 0 1.767 2.854 2.775 5.881 3.526 8.354 2.025 6.797 2.612 13.902 2.14 19.33-.66 7.545 3.762 7.52 3.904 7.52 2.354 0 3.377-.588 5.741-4.533 2.336-3.922 4.479-11.342 4.478-23.98-.074-10.914 2.974-16.773 5.634-21.382 2.582-4.674 4.681-8.019 4.769-17.289.004-.457-.009-.938-.016-1.452zM61.771 89.332h-.005c-.312 0-1.938-.074-3.269-1.527-1.375-1.498-1.93-3.889-1.647-7.1.511-5.852-.255-12.758-2.101-18.951-.801-2.637-1.77-5.447-3.416-8.105-1.429-2.301-3.313-3.518-5.445-3.518-2.673 0-5.105 1.838-6.236 3.543-1.729 2.607-2.635 5.553-3.361 7.92l-.052.17c-1.819 6.148-1.912 12.109-1.987 16.9-.031 2.016-.061 3.918-.219 5.537-.204 2.463-1.797 5.131-4.809 5.131-3.176 0-4.207-1.012-6.623-5.027-2.106-3.543-4.614-10.666-4.614-24.506.079-10.359-2.668-15.987-5.487-20.865l-.405-.731c-2.381-4.302-4.437-8.017-4.509-17.066 0-.418.008-.867.017-1.353l.003-.131c.234-6.26 2.521-10.663 7.198-13.882 2.987-2.025 6.98-3.367 11.557-3.885l.101-.006 7.014-.096c4.19.334 8.192 1.275 11.075 2.59l.947.422.964-.427c3.75-1.688 8.957-2.699 13.923-2.699l.238.001c6.138 0 11.667 1.451 15.569 4.089 4.681 3.229 6.966 7.637 7.199 13.88l.01.541.011.946c-.086 9.114-2.054 12.66-4.544 17.148l-.353.634c-2.829 4.901-5.577 10.54-5.507 20.883.005 13.84-2.51 20.965-4.62 24.508-2.424 4.044-3.723 5.032-6.617 5.032zm-15.882-41.238c2.005 0 4.877.777 7.178 4.48 1.771 2.855 2.793 5.816 3.636 8.592 1.918 6.434 2.711 13.617 2.179 19.715-.226 2.582.161 4.5 1.12 5.547.784.855 1.728.865 1.767.865v1.02l.002-1.02c1.82 0 2.566-.195 4.869-4.037 1.619-2.719 4.336-9.383 4.332-23.457-.074-10.848 2.811-16.763 5.771-21.892l.344-.621c2.351-4.235 4.207-7.581 4.289-16.169l-.012-.901-.009-.524c-.211-5.598-2.156-9.384-6.312-12.249-3.51-2.37-8.769-3.733-14.421-3.733h-.238c-4.691 0-9.586.941-13.093 2.521l-1.796.795-1.782-.793c-2.685-1.223-6.438-2.101-10.307-2.413l-6.867.099c-4.228.481-7.889 1.704-10.586 3.534-4.152 2.856-6.102 6.639-6.312 12.256l-.001.111c-.009.473-.018.908-.018 1.308.067 8.524 1.916 11.861 4.255 16.087l.396.719c2.95 5.104 5.833 11.01 5.75 21.874 0 14.074 2.712 20.734 4.327 23.453 2.346 3.898 2.854 4.035 4.874 4.035 2.479 0 2.775-3.244 2.778-3.277.151-1.551.179-3.328.211-5.385.076-4.916.172-11.031 2.074-17.459l.055-.178c.766-2.492 1.72-5.596 3.61-8.447 1.47-2.218 4.493-4.456 7.937-4.456z"></path>
    <path d="M84.674 20.178l-.01-.587c-.251-6.679-2.711-11.406-7.76-14.888-4.11-2.778-9.893-4.309-16.281-4.309l-.107.001-.131-.001c-5.137 0-10.541 1.053-14.441 2.81l-.444.196-.421-.188c-3.01-1.372-7.168-2.355-11.404-2.697l-.216-.007-7.014.096-.227.015c-4.779.54-8.971 1.955-12.137 4.101-5.035 3.466-7.496 8.188-7.748 14.907-.01.544-.019 1.045-.019 1.517.072 9.375 2.201 13.222 4.666 17.675l.417.753c2.731 4.724 5.393 10.176 5.316 20.227 0 14.129 2.606 21.475 4.797 25.162 2.413 4.012 3.786 5.645 7.715 5.645 3.646 0 5.817-3.176 6.075-6.281.163-1.67.194-3.598.225-5.641.075-4.713.166-10.578 1.933-16.547l.052-.168c.74-2.408 1.579-5.137 3.206-7.592.979-1.479 3.07-2.973 5.175-2.973 1.694 0 3.162.98 4.362 2.914 1.567 2.531 2.505 5.25 3.279 7.799 1.773 5.955 2.54 12.861 2.052 18.477-.314 3.582.352 6.299 1.977 8.072 1.648 1.799 3.639 1.938 4.208 1.938h.005c3.722 0 5.32-1.664 7.709-5.65 2.192-3.682 4.805-11.031 4.8-25.17-.067-10.025 2.595-15.487 5.349-20.259l.35-.632c2.477-4.462 4.615-8.315 4.705-17.766l-.013-.949zm-19.127 62.424c-2.041 3.406-2.48 3.42-3.761 3.42-.075-.006-.502-.055-.877-.486-.393-.451-1.013-1.643-.759-4.541.543-6.254-.267-13.609-2.229-20.197-.869-2.859-1.927-5.914-3.773-8.895-2.034-3.275-4.968-5.082-8.259-5.082-3.917 0-7.341 2.523-8.997 5.025-1.992 3.004-2.976 6.205-3.767 8.775l-.06.191c-1.949 6.594-2.048 12.807-2.125 17.799-.031 2.029-.061 3.783-.206 5.301-.003.02-.213 2.107-1.511 2.107-1.529 0-1.726 0-3.778-3.412-1.55-2.604-4.148-9.031-4.148-22.791.046-6.06-.846-10.682-2.13-14.448h9.052c1.853.049 5.76-.98 6.931-5.081.059-.204.088-.416.088-.629v-4.56l-.01-.205c-.012-.18.018-.766.304-1.071.305-.327.997-.377 1.385-.377h17.163c.387 0 1.082.05 1.387.377.285.305.314.889.305 1.029l-.013.247v4.56c0 .213.029.424.088.629 1.149 4.033 4.918 5.082 6.795 5.082l.091-.001h9.107c-1.288 3.772-2.183 8.389-2.142 14.432.004 13.768-2.6 20.2-4.151 22.802zm10.424-45.934l-.333.603c-.633 1.097-1.273 2.26-1.89 3.514h-11.059c-.057.005-1.746.01-2.347-1.496v-4.104c.04-.633.043-2.746-1.454-4.414-.781-.871-2.25-1.907-4.809-1.907h-17.162c-2.556 0-4.024 1.035-4.805 1.905-1.499 1.669-1.497 3.784-1.458 4.415v4.104c-.563 1.402-2.07 1.493-2.393 1.497h-11.002c-.61-1.239-1.243-2.386-1.868-3.466l-.397-.722c-2.339-4.226-4.03-7.28-4.095-15.471 0-.429.009-.9.018-1.371.196-5.245 1.921-8.612 5.751-11.249 2.517-1.706 5.958-2.852 9.954-3.317l6.789-.094c3.689.308 7.244 1.141 9.784 2.299l1.292.575 9.343 4.953c.342.182.709.268 1.071.268.821 0 1.616-.442 2.027-1.22.593-1.119.167-2.506-.952-3.099l-4.938-2.618c2.854-.801 6.187-1.273 9.346-1.273h.238c5.403 0 10.401 1.283 13.696 3.509 3.842 2.651 5.565 6.023 5.762 11.219l.009.556.012.842c-.08 8.264-1.778 11.325-4.13 15.562z" fill="#3b6a75" stroke="#3b6a75" stroke-width="1"></path>
    <path d="M72.238 27.225c-.144 0-.287-.015-.433-.046-1.101-.237-1.8-1.322-1.563-2.422 1.646-7.626-4.818-10.523-5.095-10.644-1.028-.445-1.51-1.642-1.069-2.673.44-1.03 1.628-1.512 2.658-1.081 3.419 1.438 9.385 6.475 7.489 15.257-.202.957-1.047 1.609-1.987 1.609z" fill="#fff"></path>
  </symbol>  
  
  <symbol xmlns="http://www.w3.org/2000/svg" viewBox="0 0 91 91" id="molar">
    <path d="M34.478 24.658l-3.157.068c-3.081.351-6.027 1.249-8.271 2.768-2.936 2.022-4.852 4.843-5.034 9.737-.011.392-.016.753-.016 1.083.054 6.915 1.641 9.408 3.563 12.896 1.982 3.429 4.253 7.815 4.189 15.934 0 9.421 1.591 14.952 3.334 17.874 1.77 2.942 2.359 3.382 4.286 3.382 2.034 0 2.737-2.055 2.826-3.143.39-3.985-.292-10.22 1.675-16.874.57-1.844 1.262-4.14 2.636-6.223 1.862-2.806 6.887-4.999 9.989 0 1.317 2.124 2.068 4.379 2.631 6.223 1.51 5.066 1.944 10.365 1.591 14.412-.488 5.621 2.806 5.604 2.912 5.604 1.756 0 2.521-.439 4.28-3.382 1.741-2.922 3.342-8.453 3.337-17.874-.056-8.137 2.217-12.505 4.198-15.937 1.927-3.487 3.489-5.979 3.56-12.893l-.019-1.078c-.187-4.904-2.101-7.72-5.031-9.75-2.953-1.99-7.128-2.926-11.269-2.917" fill="#f4f2e8"></path>
    <path d="M57.449 5.397c0 5.059-5.335 9.156-11.919 9.156-6.58 0-11.917-4.099-11.917-9.156 0-5.056 5.337-1.72 11.917-1.72 6.584.001 11.919-3.335 11.919 1.72z" fill="#f4f2e8"></path>
    <path fill="#3b6a75" stroke="#3b6a75" stroke-width="1" d="M75.086 37.605l-.009-.448c-.193-5.104-2.078-8.726-5.954-11.408-3.133-2.112-7.524-3.275-12.377-3.275l-.065.002c-1.155.002-2.092.942-2.09 2.099.001.576.236 1.099.616 1.477-.782 3.335-4.817 5.888-9.677 5.888-4.789 0-8.784-2.479-9.646-5.746.43-.393.699-.956.686-1.583-.026-1.141-.957-2.047-2.093-2.047h-.047l-3.156.069-.189.013c-3.622.41-6.806 1.488-9.223 3.124-3.862 2.662-5.749 6.278-5.94 11.41-.009.408-.016.788-.016 1.15.055 7.093 1.668 10 3.532 13.365l.312.563c2.009 3.472 3.966 7.482 3.909 14.884 0 10.629 1.973 16.169 3.634 18.955 1.839 3.057 2.972 4.396 6.08 4.396 2.956 0 4.708-2.549 4.909-5.034.124-1.259.147-2.707.17-4.237.057-3.489.125-7.83 1.422-12.223l.037-.118c.547-1.771 1.165-3.779 2.343-5.563.688-1.035 2.178-2.069 3.586-2.047 1.104.017 2.071.688 2.881 1.991 1.144 1.845 1.831 3.845 2.401 5.717 1.311 4.393 1.877 9.488 1.514 13.634-.241 2.782.287 4.905 1.575 6.311 1.334 1.456 2.954 1.57 3.422 1.57 2.946 0 4.256-1.358 6.075-4.407 1.658-2.783 3.638-8.331 3.632-18.96-.052-7.377 1.906-11.395 3.939-14.91l.26-.471c1.871-3.371 3.488-6.284 3.557-13.435l-.01-.706zm-7.208 12.11l-.244.443c-2.197 3.806-4.539 8.571-4.479 16.984.003 10.172-1.905 14.893-3.04 16.797-1.415 2.366-1.662 2.366-2.44 2.366-.554-.052-1.062-1.117-.867-3.331.409-4.711-.199-10.248-1.677-15.203-.655-2.156-1.457-4.466-2.854-6.719-1.565-2.52-3.828-3.931-6.373-3.969-3.067-.037-5.822 1.932-7.143 3.921-1.511 2.289-2.255 4.704-2.854 6.643l-.044.142c-1.467 4.964-1.541 9.622-1.601 13.366-.022 1.506-.045 2.806-.151 3.93-.002.013-.146 1.221-.74 1.221-.986 0-1.068 0-2.487-2.361-1.135-1.903-3.04-6.618-3.04-16.786.067-8.437-2.271-13.196-4.448-16.959l-.294-.535c-1.721-3.102-2.963-5.339-3.011-11.352 0-.313.009-.657.018-1.004.139-3.774 1.375-6.193 4.115-8.083 1.824-1.233 4.326-2.066 7.239-2.41l.278-.006c1.146 5.284 6.885 9.317 13.79 9.317 6.907 0 12.646-4.036 13.791-9.322 2.945.311 5.578 1.146 7.441 2.401 2.754 1.907 3.987 4.331 4.131 8.06l.009.429.009.599c-.061 6.066-1.309 8.311-3.034 11.421zM43.409 16.504v6.529l-2.497-2.497-2.961 2.961 6.069 6.071c.393.391.924.612 1.481.612.554 0 1.087-.221 1.481-.612l6.067-6.071-2.961-2.961-2.495 2.497v-6.522c6.749-.805 11.947-5.474 11.945-11.114 0-3.108-1.727-4.893-4.739-4.893-1.128 0-2.359.215-3.788.463-1.66.289-3.542.617-5.483.617s-3.822-.327-5.481-.617c-1.428-.248-2.66-.463-3.789-.463-3.011 0-4.74 1.784-4.74 4.893.001 5.624 5.17 10.283 11.891 11.107zm-7.638-11.774c.087-.018.241-.038.49-.038.766 0 1.835.186 3.07.401 1.734.301 3.896.678 6.2.678 2.304 0 4.467-.377 6.202-.678 1.235-.215 2.305-.401 3.069-.401.249 0 .401.021.486.038.029.104.065.311.065.667 0 3.895-4.406 7.064-9.824 7.064-5.416 0-9.824-3.17-9.824-7.064.001-.356.041-.562.066-.667z"></path>
    <path d="M27.163 44.551c-.885 0-1.705-.563-1.992-1.449-1.367-4.217.104-8.58 3.653-10.859.976-.623 2.269-.341 2.893.631.625.974.343 2.27-.631 2.894-1.927 1.236-2.703 3.666-1.932 6.045.356 1.101-.246 2.28-1.348 2.638-.213.068-.431.1-.643.1z" fill="#fff"></path>
  </symbol>
  
  <symbol xmlns="http://www.w3.org/2000/svg" viewBox="0 0 91 91" id="protection">
    <path d="M45.188 1.359l-39.297 11.625-.153.948c-.101.612-2.396 15.196 1.196 31.888 4.799 22.291 17.944 37.418 38.016 43.748l.225.069h.329v-88.278h-.316z" fill="#9ae0ff"></path>
    <path d="M85.265 13.934l-.153-.948-39.084-11.564-.211-.063h-.314v88.278h.328l.224-.069c20.07-6.33 33.215-21.457 38.015-43.748 3.593-16.691 1.295-31.275 1.195-31.886z" fill="#68c1e0"></path>
    <path d="M65.599 30.607c-.136-3.587-1.535-5.646-3.68-7.13-2.159-1.457-5.213-2.143-8.238-2.131-2.807-.012-5.563.58-7.431 1.424l-.75.332-.744-.332c-1.497-.68-3.586-1.182-5.799-1.362l-3.825.053c-2.255.252-4.407.914-6.046 2.023-2.147 1.479-3.548 3.543-3.682 7.118l-.011.796c.039 5.055 1.197 6.875 2.604 9.424 1.448 2.508 3.11 5.717 3.066 11.649-.005 6.888 1.16 10.935 2.435 13.07 1.294 2.15 1.728 2.471 3.136 2.471 1.483 0 2-1.502 2.065-2.297.284-2.914-.214-7.473 1.225-12.336.414-1.35.92-3.029 1.928-4.551 1.359-2.051 5.033-3.654 7.303 0 .96 1.553 1.513 3.201 1.92 4.551 1.107 3.705 1.424 7.576 1.172 10.535-.365 4.109 2.047 4.098 2.123 4.098 1.281 0 1.843-.319 3.132-2.471 1.273-2.137 2.44-6.184 2.438-13.07-.039-5.946 1.62-9.143 3.07-11.649 1.407-2.552 2.554-4.369 2.601-9.424l-.012-.791z" fill="#f4f2e8"></path>
    <path d="M54.367 70.306h-.002c-.418 0-1.875-.101-3.063-1.396-1.091-1.192-1.542-2.94-1.342-5.195.251-2.941-.153-6.563-1.084-9.676-.397-1.313-.877-2.713-1.674-4.002-.68-1.093-1.289-1.093-1.49-1.093-.742 0-1.575.587-1.951 1.153-.808 1.22-1.242 2.638-1.626 3.889-.938 3.173-.986 6.156-1.027 8.791-.019 1.137-.034 2.211-.129 3.165-.177 2.15-1.729 4.364-4.347 4.364-2.747 0-3.759-1.353-5.1-3.581-1.267-2.123-2.769-6.313-2.763-14.254.038-5.222-1.284-7.945-2.76-10.501l-.234-.422c-1.354-2.443-2.635-4.752-2.676-10.132 0-.283.002-.57.012-.883.146-3.955 1.676-6.873 4.673-8.938 1.881-1.273 4.327-2.104 7.091-2.414l.224-.014 3.825-.053.219.007c2.365.194 4.612.716 6.358 1.472 2.224-.963 5.236-1.54 8.096-1.54h.158c3.679 0 7.033.896 9.443 2.523 3.014 2.085 4.539 5.006 4.688 8.941l.011.879c-.05 5.416-1.331 7.728-2.688 10.174l-.198.356c-1.498 2.593-2.819 5.313-2.785 10.528.005 7.954-1.499 12.144-2.761 14.259-1.424 2.386-2.604 3.593-5.098 3.593zm-18-4.592h.007l.04-.186c.078-.803.094-1.74.109-2.825.045-2.782.1-6.245 1.201-9.972.455-1.485 1.041-3.396 2.215-5.167 1.291-1.948 3.559-3.207 5.773-3.207 2.168 0 4.081 1.159 5.388 3.264 1.079 1.745 1.701 3.555 2.167 5.096 1.105 3.698 1.563 7.85 1.261 11.396-.081.906.023 1.37.099 1.573.126-.133.396-.471.906-1.32.788-1.322 2.115-4.632 2.111-11.892-.042-6.346 1.723-9.935 3.378-12.799l.181-.324c1.248-2.254 2.072-3.741 2.112-7.974l-.01-.737c-.117-3.073-1.363-4.355-2.692-5.275-1.615-1.09-4.123-1.725-6.856-1.725h-.158c-2.284 0-4.738.469-6.404 1.222l-.767.338c-.592.263-1.271.263-1.861-.002l-.744-.332c-1.274-.579-3.067-.999-4.945-1.163l-3.598.05c-1.955.231-3.693.811-4.908 1.631-1.802 1.24-2.58 2.78-2.675 5.307l-.01.71c.033 4.194.856 5.68 2.102 7.927l.218.391c1.635 2.828 3.398 6.42 3.352 12.773-.005 7.245 1.32 10.554 2.11 11.88.501.833.763 1.193.898 1.342zM50.622 28.115c-.362 0-.73-.086-1.072-.269l-5.124-2.719c-1.118-.594-1.544-1.98-.951-3.1.594-1.118 1.982-1.545 3.1-.951l5.125 2.719c1.117.594 1.543 1.981.95 3.101-.412.777-1.207 1.219-2.028 1.219zM45.595 90.403h-.188c-.233 0-.467-.035-.688-.105-20.349-6.417-33.673-21.741-38.533-44.315-3.624-16.831-1.305-31.554-1.205-32.173.143-.868.769-1.579 1.612-1.829l38.164-11.29c.211-.063.431-.095.649-.095h.188c.22 0 .439.031.65.095l38.162 11.289c.846.25 1.472.961 1.612 1.831.102.617 2.419 15.341-1.205 32.172-4.86 22.573-18.185 37.897-38.529 44.314-.222.071-.456.106-.689.106zm-36.274-74.449c-.469 4.019-1.471 16.087 1.375 29.192 4.531 20.872 16.24 34.523 34.806 40.587 18.563-6.063 30.271-19.716 34.803-40.587 2.846-13.105 1.845-25.175 1.376-29.192l-36.179-10.702-36.181 10.702zM45.408 16.142c-1.267 0-2.293-1.025-2.293-2.292v-10.961c0-1.266 1.026-2.292 2.293-2.292 1.266 0 2.291 1.026 2.291 2.292v10.961c0 1.265-1.026 2.292-2.291 2.292zM45.408 90.403c-1.267 0-2.293-1.026-2.293-2.292v-15.705c0-1.267 1.026-2.292 2.293-2.292 1.266 0 2.291 1.025 2.291 2.292v15.705c0 1.266-1.026 2.292-2.291 2.292z" fill="#3b6a75" stroke="#3b6a75" stroke-width="1"></path>
    <path d="M35.242 40.246c-.975 0-1.878-.625-2.187-1.604-1.299-4.118-1.34-7.22-.124-9.479.813-1.514 2.188-2.583 3.973-3.093 1.222-.353 2.486.356 2.834 1.573.349 1.219-.356 2.486-1.573 2.834-.771.221-1.043.573-1.195.856-.332.617-.714 2.208.46 5.928.381 1.207-.29 2.495-1.497 2.876-.232.075-.463.109-.691.109z" fill="#fff"></path>
  </symbol>
  
  <symbol xmlns="http://www.w3.org/2000/svg" viewBox="0 0 91 91" id="rays">
    <path d="M81.808 39.982c0 21.799-17.672 39.473-39.473 39.473-21.797 0-39.471-17.674-39.471-39.473 0-21.797 17.674-39.471 39.471-39.471 21.801.001 39.473 17.675 39.473 39.471z" fill="#9ae0ff"></path>
    <path d="M26.647 31.373c-1.581-.494-3.438-.852-5.342-1.005l-4.78.069c-2.812.317-5.324 1.154-7.175 2.406-2.495 1.722-3.806 3.943-4.168 7.091 6.337 3.6 15.738-.119 21.465-8.561z" fill="#99b3b7"></path>
    <path d="M54.375 41.504l-.006-.377c-.142-3.787-1.459-6.351-4.271-8.294-2.395-1.612-5.996-2.545-9.871-2.545h-.154c-3.236 0-6.596.646-8.988 1.731l-.964.427c-.251.109-.538.111-.791-.001l-.793-.354c-4.628 7.057-11.693 11.172-18.019 11.172-1.913 0-3.755-.381-5.444-1.163v.021c.051 5.868 1.26 8.052 2.937 11.068l.261.475c1.975 3.413 4.089 7.711 4.033 15.332-.007 9.697 1.854 14.287 2.964 16.156 1.604 2.665 1.902 2.665 3.155 2.665 1.479 0 1.654-2.003 1.656-2.023.106-1.076.125-2.311.15-3.735.054-3.429.124-7.694 1.456-12.19l.032-.114c.535-1.751 1.203-3.934 2.542-5.95 1.061-1.603 3.248-3.219 5.74-3.219 1.461 0 3.552.563 5.216 3.243 1.237 1.999 1.959 4.081 2.555 6.033 1.341 4.497 1.896 9.523 1.523 13.795-.148 1.716.097 2.979.712 3.647.462.508 1.006.514 1.028.514 1.095 0 1.549 0 3.151-2.67 1.108-1.864 2.972-6.452 2.965-16.157-.051-7.606 1.971-11.751 4.049-15.346l.25-.456c1.674-3.017 2.882-5.197 2.934-11.076l-.008-.609z" fill="#f4f2e8"></path>
    <path d="M45.032 48.839c0 4.125-3.34 7.472-7.471 7.472-4.127 0-7.471-3.346-7.471-7.472 0-4.128 3.344-7.472 7.471-7.472 4.131 0 7.471 3.344 7.471 7.472zM35.741 12.175c0 2.952-2.394 5.345-5.347 5.345-2.948 0-5.342-2.394-5.342-5.345 0-2.952 2.394-5.344 5.342-5.344 2.955 0 5.347 2.393 5.347 5.344z" fill="#fff"></path>
    <circle cx="59.369" cy="67.708" fill="#fff" r="4.552"></circle>
    <path fill="#3b6a75" stroke="#3b6a75" stroke-width="1" d="M59.369 60.955c-1.592 0-3.053.557-4.208 1.479l-3.243-3.094c.664-1.724 1.425-3.048 2.056-4.142l.257-.463c1.756-3.169 3.271-5.907 3.331-12.612 0-.28-.004-.571-.013-.88l-.004-.209c-.178-4.845-1.971-8.281-5.66-10.829-2.961-1.995-7.099-3.094-11.659-3.094h-.15c-3.668 0-7.52.754-10.282 2.005l-.065.03-.041-.019c-1.661-.757-3.729-1.334-5.971-1.678l4.859-7.961c.583.146 1.19.231 1.818.231 4.162 0 7.548-3.386 7.548-7.546s-3.387-7.543-7.548-7.543c-4.157 0-7.541 3.383-7.541 7.543 0 1.941.743 3.707 1.95 5.046l-6.109 10.007-2.211.031-.214.013c-3.413.381-6.422 1.398-8.716 2.95-3.323 2.295-5.094 5.34-5.534 9.518-.119.352-.146.717-.087 1.069l-.021.266-.005.285-.011.786c.058 6.682 1.576 9.422 3.336 12.593l.28.506c1.857 3.209 3.667 6.911 3.616 13.745-.009 9.938 1.85 15.159 3.417 17.8 1.721 2.863 2.863 4.212 5.881 4.212 2.912 0 4.633-2.492 4.823-4.911.118-1.186.138-2.539.162-3.973.051-3.235.116-7.264 1.345-11.407.503-1.646 1.071-3.508 2.157-5.148.591-.89 1.842-1.794 3.089-1.794.968 0 1.791.57 2.518 1.74 1.049 1.69 1.682 3.539 2.209 5.271 1.212 4.061 1.733 8.774 1.402 12.606-.232 2.664.283 4.705 1.532 6.067 1.313 1.435 2.916 1.547 3.375 1.547h.002c2.862 0 4.126-1.3 5.878-4.221 1.561-2.629 3.419-7.848 3.412-17.803-.012-1.785.11-3.358.32-4.76l2.13 2.032c-.104.471-.163.958-.163 1.46 0 3.726 3.027 6.753 6.753 6.753 3.723 0 6.753-3.027 6.753-6.753 0-3.722-3.03-6.751-6.753-6.751zm-28.975-51.922c1.735 0 3.146 1.408 3.146 3.142s-1.411 3.145-3.146 3.145c-1.73 0-3.14-1.411-3.14-3.145s1.409-3.142 3.14-3.142zm-20.355 24.823c1.667-1.129 3.951-1.888 6.614-2.198l4.653-.063c1.146.098 2.265.271 3.31.503-5.16 6.61-12.694 9.608-18.091 7.171.434-2.361 1.535-4.047 3.514-5.413zm35.891 35.135c.008 9.41-1.748 13.774-2.789 15.528-1.215 2.021-1.42 2.076-2.05 2.078-.341-.075-.737-.987-.575-2.832.382-4.422-.189-9.614-1.573-14.258-.618-2.029-1.367-4.199-2.684-6.324-1.531-2.462-3.753-3.82-6.259-3.82-2.592 0-5.243 1.479-6.759 3.766-1.44 2.174-2.165 4.556-2.696 6.295l-.03.1c-1.38 4.656-1.448 9.018-1.506 12.521-.021 1.399-.042 2.606-.144 3.655-.031.393-.243.825-.438.898-.811 0-.859 0-2.103-2.068-1.046-1.765-2.802-6.128-2.794-15.521.058-7.929-2.143-12.399-4.187-15.931l-.263-.476c-1.408-2.538-2.468-4.457-2.725-8.716 1.328.395 2.717.591 4.141.591 6.47 0 13.6-3.971 18.46-10.844l6.277 3.327c.327.175.68.258 1.028.258.787 0 1.551-.426 1.947-1.171.568-1.075.16-2.406-.915-2.977l-2.014-1.067c1.537-.311 3.195-.488 4.795-.488h.15c3.64 0 6.991.854 9.179 2.328 2.496 1.725 3.616 3.923 3.741 7.313l.003.17.012.778c-.049 5.567-1.195 7.635-2.779 10.497l-.241.433c-.545.944-1.098 1.954-1.617 3.07l-2.579-2.46c.816-1.417 1.29-3.056 1.29-4.805 0-5.333-4.339-9.671-9.673-9.671-5.332 0-9.671 4.338-9.671 9.671s4.339 9.673 9.671 9.673c1.993 0 3.846-.606 5.387-1.644l3.941 3.76c-.6 2.307-.982 5.027-.958 8.363zm-8.368-14.881c-2.905 0-5.271-2.365-5.271-5.271 0-2.905 2.366-5.271 5.271-5.271s5.271 2.365 5.271 5.271c-.001 2.906-2.367 5.271-5.271 5.271zm21.807 15.951c-1.296 0-2.353-1.057-2.353-2.353s1.057-2.352 2.353-2.352 2.353 1.056 2.353 2.352-1.057 2.353-2.353 2.353zM42.335 7.656h24.977v4.402h-24.977zM42.335 14.975h16.42v4.4h-16.42zM69.676 63.063h19.324v4.401h-19.324zM69.676 70.377h12.948v4.402h-12.948z"></path>
  </symbol>
  
  <symbol xmlns="http://www.w3.org/2000/svg" viewBox="0 0 91 91" id="root">
    <path fill="#9ae0ff" d="M55.883 78.931l-10.362 9.091-10.339-9.091v-32.368h20.701z"></path>
    <path fill="#fff" d="M30.417 38.674h30.231v7.888h-30.231z"></path>
    <path d="M71.669 15.623c-.173-4.655-1.997-7.343-4.791-9.27-2.809-1.896-6.777-2.785-10.718-2.776-3.646-.009-7.244.756-9.667 1.854l-.973.436-.971-.437c-1.95-.889-4.668-1.54-7.547-1.766l-4.979.062c-2.938.336-5.736 1.188-7.867 2.628-2.792 1.927-4.617 4.618-4.784 9.27 0 .367-.037 5.504 4.189 14.886 2.102 4.664 3.175 8.165 3.175 8.165h37.565s1.414-4.344 3.143-8.088c2.247-4.877 3.932-9.458 4.245-13.928.024-.332-.015-.672-.02-1.036z" fill="#f4f2e8"></path>
    <path fill="#3b6a75" stroke="#3b6a75" stroke-width="1" d="M60.193 60.471l-30.234-6.737.98-4.398 30.234 6.737z"></path>
    <path fill="#3b6a75" stroke="#3b6a75" stroke-width="1" d="M58.135 63.028h-4.504v3.383l-16.196-3.611v-4.385h-4.506v3.385l-2.076-.463-.981 4.396 30.23 6.741.98-4.397-2.947-.657zM53.631 76.677h-16.196v-6.248h-4.506v10.752h1.403l9.717 8.533c.425.375.955.561 1.486.561.53 0 1.062-.186 1.485-.561l9.713-8.533h1.401v-6.141h-4.504v1.637zm-8.096 8.345l-4.374-3.84h8.745l-4.371 3.84zM73.933 15.906l-.013-.368c-.183-4.944-2.014-8.451-5.781-11.052-3.022-2.039-7.258-3.162-11.928-3.162h-.105c-3.761 0-7.702.769-10.534 2.052l-.051.021-.037-.016c-2.24-1.021-5.188-1.717-8.304-1.962l-.104-.009-5.082.063-.228.015c-3.49.399-6.559 1.436-8.892 3.012-3.748 2.587-5.578 6.096-5.757 11.13-.001 1.42.313 6.757 4.39 15.805 2.011 4.462 3.063 7.865 3.074 7.9l.489 1.591h3.093v7.887h4.765v5.582l25.206 5.615h.001v-11.197h4.765v-7.887h3.0359999999999996l.507-1.555c.014-.043 1.396-4.268 3.046-7.845 1.992-4.323 4.078-9.452 4.445-14.7.022-.299.014-.604-.001-.92zm-20.302 38.486l-16.196-3.609v-1.969h16.196v5.578zm4.765-10.082h-25.727000000000004v-3.384h25.727v3.384zm7.002-14.669c-1.137 2.464-2.131 5.141-2.708 6.78h-34.332c-.526-1.502-1.441-3.947-2.744-6.836-3.882-8.618-3.991-13.431-3.992-13.882.126-3.495 1.267-5.736 3.794-7.481 1.693-1.144 4.025-1.918 6.751-2.243l4.759-.059c2.53.208 4.966.775 6.7 1.566l.925.415 9.684 5.097c.335.177.692.26 1.047.26.81 0 1.593-.438 1.995-1.204.58-1.101.158-2.463-.944-3.042l-5.112-2.69c1.565-.314 3.254-.493 4.885-.493h.105c3.727 0 7.155.872 9.388 2.38 2.547 1.756 3.688 3.999 3.817 7.438l.017.479.008.377c-.253 3.606-1.462 7.535-4.043 13.138z"></path>
    <path d="M30.508 23.749c-.662 0-1.311-.33-1.691-.931-1.264-1.989-1.355-4.731-.244-7.335 1.215-2.846 3.525-4.863 6.179-5.397 1.091-.219 2.142.485 2.358 1.568.218 1.084-.484 2.141-1.569 2.358-1.34.269-2.598 1.436-3.284 3.044-.584 1.366-.605 2.752-.058 3.616.593.934.316 2.17-.617 2.764-.335.211-.706.313-1.074.313z" fill="#fff"></path>
  </symbol>
  
  <symbol xmlns="http://www.w3.org/2000/svg" viewBox="0 0 91 91" id="search">
    <path d="M44.135 46.122c-5.42-6.288-4.719-15.815 1.563-21.233 2.733-2.358 6.229-3.661 9.835-3.661 3.523 0 6.893 1.249 9.57 3.457l.004-.131-.016-.872-.007-.344c-.177-4.783-1.839-8.019-5.393-10.47-3.009-2.03-7.521-3.195-12.376-3.195h-.124c-3.8 0-7.705.71-10.645 1.908l6.339 3.358c.461.246.639.821.394 1.283-.172.322-.499.506-.84.506-.151 0-.302-.036-.444-.11l-8.063-4.273-1.141-.508c-2.307-1.049-5.521-1.799-8.828-2.063l-5.89.078c-3.623.419-6.754 1.464-9.06 3.026-3.545 2.445-5.21 5.678-5.391 10.474l-.009.593-.005.618c.058 7.313 1.644 10.173 3.647 13.793l.337.612c2.428 4.191 5.023 9.465 4.957 18.821-.011 12.069 2.314 17.784 3.7 20.116 1.995 3.31 2.425 3.426 4.129 3.426 2.072 0 2.302-2.714 2.304-2.74.131-1.338.155-2.866.184-4.635.069-4.225.151-9.483 1.788-15.009l.055-.175c.659-2.142 1.479-4.808 3.101-7.254 1.281-1.932 3.897-3.862 6.878-3.862l.102.002c1.712.024 4.166.719 6.132 3.887 1.506 2.428 2.396 4.988 3.135 7.394 1.646 5.542 2.327 11.721 1.87 16.964-.192 2.194.134 3.825.943 4.706.653.714 1.433.723 1.465.723 1.537 0 2.165-.166 4.118-3.43 1.39-2.323 3.714-8.033 3.707-20.118-.02-2.257.122-4.417.415-6.407l.026-.078c-.352.024-.705.047-1.063.047-4.382-.001-8.54-1.906-11.403-5.224z" fill="#f4f2e8"></path>
    <path d="M67.824 59.191l14.996 17.99 3.337-2.882c2.621-2.267 2.905-6.244.655-8.854l-10.895-13.235-8.093 6.981z" fill="#68c1e0"></path>
    <path d="M66.22 27.069c5.087 5.898 4.437 14.816-1.471 19.899-5.896 5.09-14.803 4.433-19.896-1.469-5.088-5.899-4.434-14.806 1.466-19.895 5.906-5.093 14.809-4.437 19.901 1.465z" fill="#9ae0ff"></path>
    <path d="M88.462 64.085l-10.895-13.233c-.365-.443-.896-.721-1.468-.77-.58-.054-1.141.135-1.578.51l-2.372 2.046-4.515-5.533c2.388-2.657 3.836-5.999 4.104-9.622.306-4.156-.975-8.177-3.581-11.4.019-.485.032-.986.036-1.524 0-.314-.005-.642-.014-.982l-.007-.339c-.215-5.789-2.352-9.893-6.743-12.928-3.567-2.402-8.578-3.725-14.104-3.725h-.065c-4.501.007-9.212.9-12.588 2.43l-.311.139-.295-.131c-2.656-1.207-6.154-2.033-9.854-2.328l-.198-.006-6.025.078-.213.014c-4.135.47-7.762 1.693-10.505 3.55-4.373 3.018-6.512 7.12-6.728 12.968l-.009.557-.007.724c.066 8.1 1.903 11.419 4.032 15.264l.359.65c2.334 4.035 4.61 8.689 4.551 17.285-.011 12.174 2.241 18.521 4.14 21.712 2.107 3.499 3.312 4.925 6.773 4.925 3.258 0 5.172-2.814 5.376-5.547.142-1.444.169-3.108.196-4.868.066-4.035.146-9.056 1.657-14.157l.055-.177c.628-2.05 1.342-4.373 2.718-6.443.824-1.238 2.561-2.48 4.309-2.48h.055c1.37.02 2.567.838 3.554 2.425 1.323 2.137 2.13 4.471 2.798 6.658 1.518 5.097 2.173 11.009 1.758 15.808-.275 3.124.311 5.498 1.74 7.061 1.463 1.598 3.232 1.722 3.742 1.722 3.265 0 4.727-1.521 6.772-4.934 1.893-3.177 4.146-9.519 4.14-21.719-.016-2.044.108-3.979.359-5.76 1.693-.439 3.304-1.157 4.775-2.117l4.524 5.544-2.484 2.143c-.883.763-.991 2.092-.245 2.987l14.996 17.988c.368.441.896.714 1.469.761l.175.007c.51 0 1.007-.184 1.396-.519l3.337-2.884c3.51-3.033 3.903-8.356.908-11.83zm-32.918-15.828c-3.487 0-6.794-1.513-9.071-4.153-4.312-4.999-3.753-12.57 1.241-16.88 2.177-1.877 4.954-2.911 7.819-2.911 3.281 0 6.392 1.354 8.645 3.71.141.222.318.418.529.576 2.014 2.402 3 5.434 2.77 8.568-.236 3.191-1.698 6.098-4.123 8.184-2.172 1.873-4.946 2.906-7.81 2.906zm-.565 9.525c.007 11.801-2.214 17.29-3.536 19.507-1.708 2.853-2.03 2.853-3.069 2.853-.06-.004-.371-.042-.653-.372-.539-.63-.759-2.003-.604-3.767.468-5.388-.232-11.729-1.921-17.414-.759-2.478-1.677-5.122-3.259-7.676-1.756-2.826-4.286-4.404-7.124-4.446-3.435-.057-6.513 2.17-7.985 4.392-1.717 2.584-2.564 5.338-3.243 7.55l-.062.197c-1.683 5.683-1.769 11.028-1.837 15.324-.027 1.742-.052 3.248-.181 4.568-.002.017-.166 1.642-1.12 1.642-1.233 0-1.393 0-3.107-2.847-1.324-2.226-3.543-7.721-3.534-19.5.067-9.654-2.61-15.098-5.103-19.402l-.343-.619c-1.997-3.607-3.44-6.215-3.497-13.213l.008-.63.007-.536c.167-4.443 1.627-7.298 4.868-9.536 2.135-1.444 5.063-2.42 8.469-2.819l5.817-.075c3.138.259 6.17.969 8.343 1.957l1.073.477 8.054 4.27c.319.17.661.25.999.25.767 0 1.508-.414 1.89-1.138.553-1.043.157-2.336-.887-2.889l-3.878-2.056c2.35-.617 5.049-.978 7.637-.978h.113c4.628 0 8.897 1.091 11.706 2.982 2.986 2.064 4.449 4.658 4.8 8.473-2.481-1.471-5.336-2.271-8.287-2.271-3.891 0-7.659 1.401-10.61 3.949-6.778 5.847-7.536 16.122-1.688 22.905 3.024 3.504 7.388 5.535 12.006 5.621-.186 1.672-.277 3.437-.262 5.267zm29.781 14.9l-1.69 1.46-12.261-14.705 4.85-4.181 9.536 11.584c1.489 1.726 1.293 4.347-.435 5.842z" fill="#3b6a75" stroke="#3b6a75" stroke-width="1"></path>
    <path d="M14.434 35.759c-.872 0-1.691-.537-2.009-1.405-4.923-13.503 5.043-17.747 5.146-17.789 1.093-.443 2.34.08 2.786 1.173.441 1.087-.073 2.326-1.154 2.777-.657.286-6.173 3.011-2.762 12.375.403 1.109-.166 2.336-1.274 2.74-.244.087-.491.129-.733.129zM49.336 42.499c-.736 0-1.456-.382-1.852-1.068-3.583-6.21.537-11.481 3.217-13.4.96-.688 2.294-.467 2.982.492.685.956.468 2.287-.484 2.976-.475.348-4.502 3.484-2.014 7.798.59 1.021.237 2.329-.783 2.918-.336.191-.704.284-1.066.284z" fill="#fff"></path>
  </symbol>
  
  <symbol xmlns="http://www.w3.org/2000/svg" viewBox="0 0 240 240" id="telegram">
    <circle cx="120" cy="120" r="120" fill="#2ecc71"></circle>
    <path d="M81.229,128.772l14.237,39.406s1.78,3.687,3.686,3.687,30.255-29.492,30.255-29.492l31.525-60.89L81.737,118.6Z" fill="#c8daea"></path>
    <path d="M81.486,130.178,52.2,120.636s-3.5-1.42-2.373-4.64c.232-.664.7-1.229,2.1-2.2,6.489-4.523,120.106-45.36,120.106-45.36s3.208-1.081,5.1-.362a2.766,2.766,0,0,1,1.885,2.055,9.357,9.357,0,0,1,.254,2.585c-.009.752-.1,1.449-.169,2.542-.692,11.165-21.4,94.493-21.4,94.493s-1.239,4.876-5.678,5.043A8.13,8.13,0,0,1,146.1,172.5c-8.711-7.493-38.819-27.727-45.472-32.177a1.27,1.27,0,0,1-.546-.9c-.093-.469.417-1.05.417-1.05s52.426-46.6,53.821-51.492c.108-.379-.3-.566-.848-.4-3.482,1.281-63.844,39.4-70.506,43.607A3.21,3.21,0,0,1,81.486,130.178Z" fill="#fff"></path>
  </symbol>
  
  <symbol xmlns="http://www.w3.org/2000/svg" viewBox="0 0 512 512" id="whatsapp">
    <path d="M80.408 464.664c-3.653 0-7.34-.796-10.812-2.429-9.422-4.43-15.116-14.006-14.508-24.401l3.266-55.782h-25.028c-18.376 0-33.326-14.949-33.326-33.326v-181.637c0-18.377 14.95-33.326 33.326-33.326h283.892c18.377 0 33.326 14.95 33.326 33.326v181.637c0 18.376-14.95 33.326-33.326 33.326h-31.398c-7.631 0-13.817-6.186-13.817-13.817s6.186-13.817 13.817-13.817h31.399c3.139 0 5.693-2.553 5.693-5.693v-181.636c0-3.139-2.553-5.693-5.693-5.693h-283.893c-3.138 0-5.693 2.553-5.693 5.693v181.637c0 3.138 2.553 5.693 5.693 5.693h39.678c3.804 0 7.44 1.568 10.052 4.337 2.61 2.768 3.964 6.49 3.742 10.288l-3.786 64.655 81.054-75.569c2.559-2.385 5.925-3.711 9.422-3.711h48.656c7.631 0 13.817 6.186 13.817 13.817s-6.186 13.817-13.817 13.817h-43.215l-81.289 75.787c-4.807 4.483-10.971 6.824-17.232 6.824z" fill="#211E48"></path>
    <path d="M478.674 61.154h-283.893c-10.774 0-19.51 8.735-19.51 19.509v66.918h141.947c10.774 0 19.509 8.735 19.509 19.51v114.719h1.784l85.268 79.497c7.595 7.081 19.945 1.275 19.338-9.092l-4.123-70.407h39.678c10.774 0 19.509-8.735 19.509-19.509v-181.636c.002-10.775-8.733-19.509-19.507-19.509z" fill="#B0DACC"></path>
    <path fill="#211E48" d="M431.548 378.243c-6.361 0-12.464-2.425-17.19-6.83l-82.07-76.515c-5.452-1.849-9.378-7.011-9.378-13.089v-114.719c0-3.138-2.553-5.693-5.693-5.693h-141.945c-7.631 0-13.817-6.186-13.817-13.817v-66.917c0-18.377 14.95-33.326 33.326-33.326h283.892c18.376 0 33.326 14.95 33.326 33.326v181.637c0 18.376-14.95 33.326-33.326 33.326h-25.029l3.266 55.782c.413 7.054-1.995 13.733-6.781 18.808-4.81 5.101-11.583 8.027-18.581 8.027zm-81.003-104.105l78.443 73.133-3.786-64.654c-.222-3.798 1.132-7.519 3.742-10.288 2.611-2.768 6.247-4.337 10.052-4.337h39.678c3.138 0 5.693-2.553 5.693-5.693v-181.636c0-3.138-2.553-5.693-5.693-5.693h-283.893c-3.139 0-5.693 2.553-5.693 5.693v53.101h128.13c18.376 0 33.326 14.95 33.326 33.326v107.048zM256 240.425h-165.803c-7.631 0-13.817-6.186-13.817-13.817s6.186-13.817 13.817-13.817h165.803c7.631 0 13.817 6.186 13.817 13.817s-6.186 13.817-13.817 13.817zM234.122 311.273h-122.049c-7.631 0-13.817-6.186-13.817-13.817s6.186-13.817 13.817-13.817h122.049c7.631 0 13.817 6.186 13.817 13.817s-6.186 13.817-13.817 13.817z"></path>
  </symbol>

  <symbol xmlns="http://www.w3.org/2000/svg" viewBox="0 0 20 20" id="smile">
    <circle fill="#dcf0f9" cx="13" cy="7" r="1"/><circle fill="#dcf0f9" cx="7" cy="7" r="1"/><circle stroke="#dcf0f9" cx="10" cy="10" r="8.5" fill="none"/><path stroke="#dcf0f9" d="M14.6 11.4c-.7 1.9-2.5 3.1-4.6 3.1-2.1 0-3.9-1.2-4.6-3.1" fill="none"/>
  </symbol>

</svg>